<svg width="45" height="45" viewBox="0 0 45 45" fill="none" xmlns="http://www.w3.org/2000/svg">
<circle cx="22.5" cy="22.5" r="22" stroke="#2CA1E2"/>
<path d="M23.6217 20.958C25.0443 21.134 26.1297 21.618 26.8777 22.41C27.6257 23.202 27.9997 24.192 27.9997 25.38C27.9997 26.2747 27.7723 27.0887 27.3177 27.822C26.863 28.5553 26.1737 29.142 25.2497 29.582C24.3403 30.0073 23.2257 30.22 21.9057 30.22C20.8057 30.22 19.7423 30.066 18.7157 29.758C17.7037 29.4353 16.8383 28.9953 16.1197 28.438L17.3517 26.216C17.909 26.6853 18.5837 27.0593 19.3757 27.338C20.1823 27.602 21.011 27.734 21.8617 27.734C22.8737 27.734 23.6657 27.5287 24.2377 27.118C24.8243 26.6927 25.1177 26.1207 25.1177 25.402C25.1177 24.6833 24.839 24.126 24.2817 23.73C23.739 23.3193 22.903 23.114 21.7737 23.114H20.3657V21.156L23.8637 16.998H16.8677V14.6H27.3617V16.514L23.6217 20.958Z" fill="#2CA1E2"/>
</svg>
