<svg width="45" height="45" viewBox="0 0 45 45" fill="none" xmlns="http://www.w3.org/2000/svg">
<circle cx="22.5" cy="22.5" r="22" stroke="#2CA1E2"/>
<path d="M28.2197 27.58V30H16.8677V28.086L22.9837 22.278C23.673 21.618 24.135 21.046 24.3697 20.562C24.619 20.0633 24.7437 19.572 24.7437 19.088C24.7437 18.3693 24.5017 17.8193 24.0177 17.438C23.5337 17.0567 22.8223 16.866 21.8837 16.866C20.3143 16.866 19.1117 17.4013 18.2757 18.472L16.2737 16.932C16.875 16.1253 17.6817 15.502 18.6937 15.062C19.7203 14.6073 20.8643 14.38 22.1257 14.38C23.7977 14.38 25.1323 14.776 26.1297 15.568C27.127 16.36 27.6257 17.438 27.6257 18.802C27.6257 19.638 27.4497 20.4227 27.0977 21.156C26.7457 21.8893 26.071 22.7253 25.0737 23.664L20.9597 27.58H28.2197Z" fill="#2CA1E2"/>
</svg>
