<svg width="1440" height="110" viewBox="0 0 1440 110" fill="none" xmlns="http://www.w3.org/2000/svg">
<path d="M1644 1C1527.83 39.5716 1252.63 105.143 1081.19 58.8574C909.756 12.5715 665.008 39.5716 564.063 58.8574C453.532 82.9647 185.775 105.143 -1.00008 1" stroke="#848484"/>
<path d="M1178.36 45.6354L1181.76 47.8988C1186.68 51.1762 1190.17 56.2034 1191.52 61.9599C1192.22 64.9569 1192.33 68.0634 1191.82 71.0998L1191.68 71.9486C1190.26 80.4826 1184.91 87.8545 1177.24 91.8593L1167.6 96.8933C1164.94 98.2863 1162.04 99.186 1159.05 99.5489C1149.28 100.736 1139.72 96.0763 1134.64 87.6473L1129.68 79.4189C1126.05 73.398 1125.01 66.1634 1126.81 59.3652C1129.82 47.9522 1140.14 40 1151.94 40H1159.73C1166.36 40 1172.84 41.9607 1178.36 45.6354Z" fill="#2CA1E2" stroke="#2CA1E2"/>
<g clip-path="url(#clip0)">
<path d="M1173.36 77.1855L1166.5 70.3242C1165.15 68.9707 1163.12 68.707 1161.49 69.5098L1155.25 63.2637V59.625L1147.75 54L1144 57.75L1149.62 65.25H1153.26L1159.51 71.4961C1158.71 73.125 1158.97 75.1465 1160.32 76.5L1167.18 83.3613C1168.04 84.2168 1169.42 84.2168 1170.27 83.3613L1173.36 80.2734C1174.21 79.418 1174.21 78.0352 1173.36 77.1855ZM1163.43 67.1836C1165.09 67.1836 1166.65 67.8281 1167.82 69L1168.96 70.1367C1169.89 69.7324 1170.76 69.1699 1171.53 68.4082C1173.7 66.2344 1174.44 63.1758 1173.75 60.3984C1173.62 59.8711 1172.96 59.6895 1172.57 60.0762L1168.21 64.4355L1164.23 63.7734L1163.57 59.7949L1167.93 55.4355C1168.32 55.0488 1168.13 54.3867 1167.59 54.252C1164.82 53.5664 1161.76 54.3047 1159.59 56.4727C1157.92 58.1426 1157.14 60.3457 1157.18 62.543L1161.99 67.3535C1162.46 67.2422 1162.95 67.1836 1163.43 67.1836ZM1157.35 71.9883L1154.02 68.666L1145.09 77.6016C1143.63 79.0664 1143.63 81.4395 1145.09 82.9043C1146.56 84.3691 1148.93 84.3691 1150.4 82.9043L1157.64 75.6621C1157.19 74.4961 1157.06 73.2246 1157.35 71.9883ZM1147.75 81.6562C1146.98 81.6562 1146.34 81.0234 1146.34 80.25C1146.34 79.4707 1146.97 78.8438 1147.75 78.8438C1148.53 78.8438 1149.16 79.4707 1149.16 80.25C1149.16 81.0234 1148.53 81.6562 1147.75 81.6562Z" fill="white"/>
</g>
<path d="M788.362 12.6354L791.76 14.8988C796.682 18.1762 800.171 23.2034 801.521 28.9599C802.224 31.9569 802.325 35.0634 801.819 38.0998L801.678 38.9486C800.256 47.4826 794.911 54.8545 787.242 58.8593L777.603 63.8933C774.935 65.2863 772.038 66.186 769.051 66.5489C759.28 67.7361 749.723 63.0763 744.64 54.6473L739.679 46.4189C736.049 40.398 735.012 33.1634 736.805 26.3652C739.816 14.9522 750.138 7 761.941 7H769.733C776.362 7 782.844 8.96069 788.362 12.6354Z" fill="#2CA1E2" stroke="#2CA1E2"/>
<path d="M780.25 30.4375H755.75C754.784 30.4375 754 29.682 754 28.75V25.375C754 24.443 754.784 23.6875 755.75 23.6875H780.25C781.216 23.6875 782 24.443 782 25.375V28.75C782 29.682 781.216 30.4375 780.25 30.4375ZM777.625 25.7969C776.9 25.7969 776.312 26.3635 776.312 27.0625C776.312 27.7615 776.9 28.3281 777.625 28.3281C778.35 28.3281 778.938 27.7615 778.938 27.0625C778.938 26.3635 778.35 25.7969 777.625 25.7969ZM774.125 25.7969C773.4 25.7969 772.812 26.3635 772.812 27.0625C772.812 27.7615 773.4 28.3281 774.125 28.3281C774.85 28.3281 775.438 27.7615 775.438 27.0625C775.438 26.3635 774.85 25.7969 774.125 25.7969ZM780.25 38.875H755.75C754.784 38.875 754 38.1195 754 37.1875V33.8125C754 32.8805 754.784 32.125 755.75 32.125H780.25C781.216 32.125 782 32.8805 782 33.8125V37.1875C782 38.1195 781.216 38.875 780.25 38.875ZM777.625 34.2344C776.9 34.2344 776.312 34.801 776.312 35.5C776.312 36.199 776.9 36.7656 777.625 36.7656C778.35 36.7656 778.938 36.199 778.938 35.5C778.938 34.801 778.35 34.2344 777.625 34.2344ZM774.125 34.2344C773.4 34.2344 772.812 34.801 772.812 35.5C772.812 36.199 773.4 36.7656 774.125 36.7656C774.85 36.7656 775.438 36.199 775.438 35.5C775.438 34.801 774.85 34.2344 774.125 34.2344ZM780.25 47.3125H755.75C754.784 47.3125 754 46.557 754 45.625V42.25C754 41.318 754.784 40.5625 755.75 40.5625H780.25C781.216 40.5625 782 41.318 782 42.25V45.625C782 46.557 781.216 47.3125 780.25 47.3125ZM777.625 42.6719C776.9 42.6719 776.312 43.2385 776.312 43.9375C776.312 44.6365 776.9 45.2031 777.625 45.2031C778.35 45.2031 778.938 44.6365 778.938 43.9375C778.938 43.2385 778.35 42.6719 777.625 42.6719ZM774.125 42.6719C773.4 42.6719 772.812 43.2385 772.812 43.9375C772.812 44.6365 773.4 45.2031 774.125 45.2031C774.85 45.2031 775.438 44.6365 775.438 43.9375C775.438 43.2385 774.85 42.6719 774.125 42.6719Z" fill="white"/>
<path d="M359.362 53.6354L362.76 55.8988C367.682 59.1762 371.171 64.2034 372.521 69.9599C373.224 72.9569 373.325 76.0634 372.819 79.0998L372.678 79.9486C371.256 88.4826 365.911 95.8545 358.242 99.8593L348.603 104.893C345.935 106.286 343.038 107.186 340.051 107.549C330.28 108.736 320.723 104.076 315.64 95.6473L310.679 87.4189C307.049 81.398 306.012 74.1634 307.805 67.3652C310.816 55.9522 321.138 48 332.941 48H340.733C347.362 48 353.844 49.9607 359.362 53.6354Z" fill="#2CA1E2" stroke="#2CA1E2"/>
<path d="M346 72.5806C345.181 67.5395 343.25 64 341.003 64C338.756 64 336.825 67.5395 336.006 72.5806H346ZM335.582 78C335.582 79.2532 335.65 80.4556 335.769 81.6129H346.231C346.35 80.4556 346.418 79.2532 346.418 78C346.418 76.7468 346.35 75.5444 346.231 74.3871H335.769C335.65 75.5444 335.582 76.7468 335.582 78ZM353.916 72.5806C352.301 68.7476 349.032 65.7839 344.995 64.5871C346.372 66.4952 347.321 69.3685 347.818 72.5806H353.916ZM337.005 64.5871C332.974 65.7839 329.699 68.7476 328.09 72.5806H334.188C334.679 69.3685 335.628 66.4952 337.005 64.5871ZM354.52 74.3871H348.044C348.162 75.5726 348.23 76.7863 348.23 78C348.23 79.2137 348.162 80.4274 348.044 81.6129H354.514C354.825 80.4556 355 79.2532 355 78C355 76.7468 354.825 75.5444 354.52 74.3871ZM333.776 78C333.776 76.7863 333.843 75.5726 333.962 74.3871H327.486C327.181 75.5444 327 76.7468 327 78C327 79.2532 327.181 80.4556 327.486 81.6129H333.956C333.843 80.4274 333.776 79.2137 333.776 78ZM336.006 83.4194C336.825 88.4605 338.756 92 341.003 92C343.25 92 345.181 88.4605 346 83.4194H336.006ZM345 91.4129C349.032 90.2161 352.307 87.2524 353.922 83.4194H347.824C347.327 86.6315 346.378 89.5048 345 91.4129ZM328.09 83.4194C329.705 87.2524 332.974 90.2161 337.011 91.4129C335.633 89.5048 334.685 86.6315 334.188 83.4194H328.09Z" fill="white"/>
<defs>
<clipPath id="clip0">
<rect width="30" height="30" fill="white" transform="translate(1144 54)"/>
</clipPath>
</defs>
</svg>
