<svg width="1440" height="103" viewBox="0 0 1440 103" fill="none" xmlns="http://www.w3.org/2000/svg">
<path d="M-1 102.192C100.764 63.5255 341.836 -2.2078 492.013 44.1922C642.189 90.5922 856.585 63.5255 945.011 44.1922C1041.84 20.0255 1276.39 -2.2078 1440 102.192" stroke="#848484"/>
<path d="M1048.14 6.88733L1050.56 8.60994C1055.44 12.0787 1058.85 17.2378 1060.13 23.0834C1060.77 26.0023 1060.87 29.015 1060.4 31.9678L1060.28 32.7792C1058.93 41.4392 1053.66 48.9949 1046.01 53.264L1037.7 57.9002C1035.21 59.2874 1032.48 60.1883 1029.66 60.5548C1020.59 61.7306 1011.73 57.2933 1007.23 49.3365L1001.99 40.0554C998.71 34.2394 997.773 27.3885 999.375 20.9045C1002.26 9.21371 1012.75 1 1024.79 1H1029.7C1036.31 1 1042.75 3.05771 1048.14 6.88733Z" fill="#2CA1E2" stroke="#2CA1E2"/>
<path d="M1027.15 29.7979C1027.47 30.1275 1027.99 30.1275 1028.32 29.7979L1028.9 29.2015C1029.22 28.8719 1029.22 28.3377 1028.9 28.0081L1027.06 26.125L1028.9 24.2413C1029.22 23.9117 1029.22 23.3775 1028.9 23.0479L1028.32 22.4515C1027.99 22.1219 1027.47 22.1219 1027.15 22.4515L1024.14 25.528C1023.82 25.8576 1023.82 26.3918 1024.14 26.7214L1027.15 29.7979ZM1032.1 29.2021L1032.68 29.7985C1033.01 30.1281 1033.53 30.1281 1033.85 29.7985L1036.86 26.722C1037.18 26.3924 1037.18 25.8582 1036.86 25.5286L1033.85 22.4521C1033.53 22.1225 1033.01 22.1225 1032.68 22.4521L1032.1 23.0485C1031.78 23.3781 1031.78 23.9123 1032.1 24.2419L1033.94 26.125L1032.1 28.0087C1031.78 28.3383 1031.78 28.8725 1032.1 29.2021ZM1046.17 37.9375H1033.67C1033.64 38.9822 1032.91 39.625 1031.98 39.625H1028.85C1027.89 39.625 1027.15 38.7037 1027.16 37.9375H1014.82C1014.37 37.9375 1014 38.3172 1014 38.7812V39.625C1014 41.4813 1015.48 43 1017.3 43H1043.7C1045.51 43 1047 41.4813 1047 39.625V38.7812C1047 38.3172 1046.63 37.9375 1046.17 37.9375ZM1043.7 18.5312C1043.7 17.1391 1042.59 16 1041.23 16H1019.78C1018.41 16 1017.3 17.1391 1017.3 18.5312V36.25H1043.7V18.5312ZM1040.4 32.875H1020.6V19.375H1040.4V32.875Z" fill="white"/>
<path d="M668.744 45.8873L671.166 47.6099C676.044 51.0787 679.456 56.2378 680.739 62.0834C681.38 65.0023 681.473 68.015 681.012 70.9678L680.885 71.7792C679.534 80.4392 674.271 87.9949 666.617 92.264L658.304 96.9002C655.817 98.2874 653.088 99.1883 650.264 99.5548C641.202 100.731 632.333 96.2933 627.841 88.3365L622.601 79.0554C619.318 73.2394 618.381 66.3885 619.982 59.9045C622.87 48.2137 633.359 40 645.401 40H650.309C656.917 40 663.36 42.0577 668.744 45.8873Z" fill="#2CA1E2" stroke="#2CA1E2"/>
<path d="M651 68C655.103 68 658.429 65.0902 658.429 61.5C658.429 57.9098 655.103 55 651 55C646.897 55 643.571 57.9098 643.571 61.5C643.571 65.0902 646.897 68 651 68ZM656.56 69.6555L653.786 79.375L651.929 72.4688L653.786 69.625H648.214L650.071 72.4688L648.214 79.375L645.44 69.6555C641.302 69.8281 638 72.7887 638 76.45V78.5625C638 79.9082 639.248 81 640.786 81H661.214C662.752 81 664 79.9082 664 78.5625V76.45C664 72.7887 660.698 69.8281 656.56 69.6555Z" fill="white"/>
<path d="M289.352 10.8873L291.774 12.6099C296.651 16.0787 300.063 21.2378 301.347 27.0834C301.988 30.0023 302.08 33.015 301.619 35.9678L301.493 36.7792C300.142 45.4392 294.879 52.9949 287.224 57.264L278.911 61.9002C276.424 63.2874 273.695 64.1883 270.871 64.5548C261.81 65.7306 252.941 61.2933 248.449 53.3365L243.209 44.0554C239.925 38.2394 238.988 31.3885 240.59 24.9045C243.478 13.2137 253.967 5 266.009 5H270.917C277.524 5 283.968 7.05771 289.352 10.8873Z" fill="#2CA1E2" stroke="#2CA1E2"/>
<g clip-path="url(#clip0)">
<path d="M285.229 26.7718L282.708 29.2929C282.451 29.5499 282.035 29.5499 281.778 29.2929L275.708 23.2225C275.451 22.9655 275.451 22.5499 275.708 22.2929L278.229 19.7718C279.252 18.7491 280.914 18.7491 281.942 19.7718L285.229 23.0585C286.257 24.0811 286.257 25.7436 285.229 26.7718ZM273.542 24.4585L259.182 38.8194L258.022 45.464C257.864 46.3608 258.646 47.1374 259.542 46.9843L266.187 45.8194L280.548 31.4585C280.805 31.2015 280.805 30.7858 280.548 30.5288L274.478 24.4585C274.215 24.2014 273.8 24.2014 273.542 24.4585ZM264.787 37.589C264.486 37.2882 264.486 36.8069 264.787 36.5061L273.209 28.0843C273.51 27.7835 273.991 27.7835 274.292 28.0843C274.592 28.385 274.592 28.8663 274.292 29.1671L265.87 37.589C265.569 37.8897 265.088 37.8897 264.787 37.589ZM262.813 42.1882H265.438V44.1733L261.91 44.7913L260.21 43.0905L260.828 39.5632H262.813V42.1882Z" fill="white"/>
</g>
<defs>
<clipPath id="clip0">
<rect width="28" height="28" fill="white" transform="translate(258 19)"/>
</clipPath>
</defs>
</svg>
