<svg width="1440" height="105" viewBox="0 0 1440 105" fill="none" xmlns="http://www.w3.org/2000/svg">
<path d="M-19 104.192C84 65.5255 328 -0.207796 480 46.1922C632 92.5922 849 65.5255 938.5 46.1922C1036.5 22.0255 1273.9 -0.207802 1439.5 104.192" stroke="#848484"/>
<path d="M1118.81 6.84054L1121.41 8.66306C1126.29 12.0966 1129.72 17.2318 1131.01 23.0615C1131.67 25.9943 1131.76 29.0236 1131.29 31.9912L1131.16 32.8094C1129.8 41.4467 1124.52 48.969 1116.86 53.189L1108.31 57.8986C1105.79 59.2871 1103.03 60.1878 1100.18 60.5537C1090.99 61.7316 1082 57.2536 1077.41 49.2112L1072.21 40.1225C1068.87 34.2683 1067.91 27.3482 1069.55 20.8069C1072.46 9.16625 1082.92 1 1094.92 1H1100.34C1106.95 1 1113.4 3.0396 1118.81 6.84054Z" fill="#2CA1E2" stroke="#2CA1E2"/>
<g clip-path="url(#clip0)">
<path d="M1108 15H1094C1092.34 15 1091 16.3018 1091 17.9062V43.0938C1091 44.6982 1092.34 46 1094 46H1108C1109.66 46 1111 44.6982 1111 43.0938V17.9062C1111 16.3018 1109.66 15 1108 15ZM1101 44.0625C1099.89 44.0625 1099 43.1967 1099 42.125C1099 41.0533 1099.89 40.1875 1101 40.1875C1102.11 40.1875 1103 41.0533 1103 42.125C1103 43.1967 1102.11 44.0625 1101 44.0625ZM1108 37.5234C1108 37.923 1107.66 38.25 1107.25 38.25H1094.75C1094.34 38.25 1094 37.923 1094 37.5234V18.6328C1094 18.2332 1094.34 17.9062 1094.75 17.9062H1107.25C1107.66 17.9062 1108 18.2332 1108 18.6328V37.5234Z" fill="white"/>
</g>
<path d="M718.812 45.8405L721.405 47.6631C726.291 51.0966 729.718 56.2318 731.014 62.0615C731.665 64.9943 731.759 68.0236 731.291 70.9912L731.162 71.8094C729.798 80.4467 724.519 87.969 716.861 92.189L708.314 96.8986C705.794 98.2871 703.035 99.1878 700.181 99.5537C690.993 100.732 682.002 96.2536 677.406 88.2112L672.213 79.1225C668.868 73.2683 667.913 66.3482 669.548 59.8069C672.458 48.1663 682.918 40 694.916 40H700.342C706.953 40 713.403 42.0396 718.812 45.8405Z" fill="#2CA1E2" stroke="#2CA1E2"/>
<path d="M714.25 76.5H702.885C702.85 77.4286 702.195 78 701.35 78H698.5C697.624 78 696.952 77.1811 696.964 76.5H685.75C685.337 76.5 685 76.8375 685 77.25V78C685 79.65 686.35 81 688 81H712C713.65 81 715 79.65 715 78V77.25C715 76.8375 714.663 76.5 714.25 76.5ZM712 59.25C712 58.0125 710.987 57 709.75 57H690.25C689.013 57 688 58.0125 688 59.25V75H712V59.25ZM709 72H691V60H709V72Z" fill="white"/>
<path d="M302.812 8.84054L305.405 10.6631C310.291 14.0966 313.718 19.2318 315.014 25.0615C315.665 27.9943 315.759 31.0236 315.291 33.9912L315.162 34.8094C313.798 43.4467 308.519 50.969 300.861 55.189L292.314 59.8986C289.794 61.2871 287.035 62.1878 284.181 62.5537C274.993 63.7316 266.002 59.2536 261.406 51.2112L256.213 42.1225C252.868 36.2683 251.913 29.3482 253.548 22.8069C256.458 11.1663 266.918 3 278.916 3H284.342C290.953 3 297.403 5.0396 302.812 8.84054Z" fill="#2CA1E2" stroke="#2CA1E2"/>
<path d="M278.562 41.8572H280.125V33.3928H278.562C277.7 33.3928 277 32.8682 277 32.221V29.4219C277 28.7746 277.7 28.25 278.562 28.25H287.312C288.175 28.25 288.875 28.7746 288.875 29.4219V41.8572H290.438C291.3 41.8572 292 42.3818 292 43.029V45.8281C292 46.4754 291.3 47 290.438 47H278.562C277.7 47 277 46.4754 277 45.8281V43.029C277 42.3818 277.7 41.8572 278.562 41.8572ZM284.5 17C281.393 17 278.875 18.8888 278.875 21.2188C278.875 23.5487 281.393 25.4375 284.5 25.4375C287.607 25.4375 290.125 23.5487 290.125 21.2188C290.125 18.8888 287.607 17 284.5 17Z" fill="white"/>
<defs>
<clipPath id="clip0">
<rect width="21" height="32" fill="white" transform="translate(1089 15)"/>
</clipPath>
</defs>
</svg>
